<svg xmlns="http://www.w3.org/2000/svg" viewBox="0 0 64 64"><title>Crossed-Pens</title><path d="M41.03,32.87,55.757,18.142c.011-.011.014-.025.024-.036a1,1,0,0,0,.172-.257.506.506,0,0,0,.024-.046c0-.008.009-.015.012-.023L60.938,4.346a1,1,0,0,0-1.284-1.284L46.219,8.012l-.018.009c-.014.006-.027.015-.041.022a.985.985,0,0,0-.267.177c-.011.01-.025.013-.035.023L31.086,23.015l-8.888-7.9L17.333,6.079a1,1,0,0,0-.707-.511L4.605,3.447A1,1,0,0,0,3.447,4.605L5.568,16.626a1,1,0,0,0,.511.707L15.116,22.2l7.9,8.886-8.27,8.269h0l-1.476,1.476L3.432,50.669a3,3,0,0,0,0,4.242l5.656,5.657a3,3,0,0,0,4.243,0l4.948-4.948h0l6.364-6.364h0L32.87,41.03l21.784,20.7a1,1,0,0,0,1.4-.018l5.657-5.657a1,1,0,0,0,.018-1.4ZM58.313,5.688,57.7,7.355,56.645,6.3ZM54.578,7.064l2.359,2.358-2.285,6.2L50.469,11.44l-.368-.369h0l-.648-.648L48.378,9.349Zm-3.77,7.542-29.7,29.7L20.4,43.6l-.707-.707,29.7-29.7.708.707ZM7.453,15.8,5.967,7.382,8.8,10.219a3,3,0,0,0,.577,3.405h0a3,3,0,1,0,.837-4.82L7.382,5.968,15.8,7.453l4.367,8.111-4.6,4.605Zm3.341-5,0-.005a1,1,0,0,1,1.411,1.417,1.02,1.02,0,0,1-1.413,0h0A1,1,0,0,1,10.794,10.8Zm6.325,10.644,4.323-4.323,8.227,7.313-5.237,5.237ZM46.565,10.364l1.414,1.414-29.7,29.7-1.415-1.414ZM11.917,59.154a1,1,0,0,1-1.415,0L4.845,53.5a1,1,0,0,1,0-1.413l4.242-4.242,7.071,7.071ZM17.573,53.5,10.5,46.427,14.327,42.6l1.125-1.125,3.536,3.535L20.4,46.427h0l2.12,2.12Zm6.364-6.364-1.414-1.415,29.7-29.7,1.414,1.415ZM55.325,59.6,34.284,39.615l5.331-5.331L59.6,55.325Z"></path></svg>
